<?xml version="1.0" standalone="no"?><svg xmlns="http://www.w3.org/2000/svg" viewBox="0 0 1440 320"><path fill="#311B64" fill-opacity="1" d="M0,64L20,80C40,96,80,128,120,154.7C160,181,200,203,240,186.7C280,171,320,117,360,128C400,139,440,213,480,229.3C520,245,560,203,600,160C640,117,680,75,720,64C760,53,800,75,840,106.7C880,139,920,181,960,192C1000,203,1040,181,1080,149.3C1120,117,1160,75,1200,101.3C1240,128,1280,224,1320,256C1360,288,1400,256,1420,240L1440,224L1440,0L1420,0C1400,0,1360,0,1320,0C1280,0,1240,0,1200,0C1160,0,1120,0,1080,0C1040,0,1000,0,960,0C920,0,880,0,840,0C800,0,760,0,720,0C680,0,640,0,600,0C560,0,520,0,480,0C440,0,400,0,360,0C320,0,280,0,240,0C200,0,160,0,120,0C80,0,40,0,20,0L0,0Z"></path></svg>