<?xml version="1.0" standalone="no"?><svg xmlns="http://www.w3.org/2000/svg" viewBox="0 0 1440 320"><path fill="#5A3A9B" fill-opacity="1" d="M0,128L26.7,149.3C53.3,171,107,213,160,224C213.3,235,267,213,320,181.3C373.3,149,427,107,480,112C533.3,117,587,171,640,181.3C693.3,192,747,160,800,160C853.3,160,907,192,960,181.3C1013.3,171,1067,117,1120,117.3C1173.3,117,1227,171,1280,197.3C1333.3,224,1387,224,1413,224L1440,224L1440,0L1413.3,0C1386.7,0,1333,0,1280,0C1226.7,0,1173,0,1120,0C1066.7,0,1013,0,960,0C906.7,0,853,0,800,0C746.7,0,693,0,640,0C586.7,0,533,0,480,0C426.7,0,373,0,320,0C266.7,0,213,0,160,0C106.7,0,53,0,27,0L0,0Z"></path></svg>