<?xml version="1.0" standalone="no"?><svg xmlns="http://www.w3.org/2000/svg" viewBox="0 0 1440 320"><path fill="#311B64" fill-opacity="1" d="M0,160L20,165.3C40,171,80,181,120,160C160,139,200,85,240,58.7C280,32,320,32,360,58.7C400,85,440,139,480,133.3C520,128,560,64,600,32C640,0,680,0,720,48C760,96,800,192,840,208C880,224,920,160,960,165.3C1000,171,1040,245,1080,250.7C1120,256,1160,192,1200,144C1240,96,1280,64,1320,80C1360,96,1400,160,1420,192L1440,224L1440,320L1420,320C1400,320,1360,320,1320,320C1280,320,1240,320,1200,320C1160,320,1120,320,1080,320C1040,320,1000,320,960,320C920,320,880,320,840,320C800,320,760,320,720,320C680,320,640,320,600,320C560,320,520,320,480,320C440,320,400,320,360,320C320,320,280,320,240,320C200,320,160,320,120,320C80,320,40,320,20,320L0,320Z"></path></svg>